<mxfile host="app.diagrams.net" modified="2022-06-16T21:30:49.892Z" agent="5.0 (Windows NT 10.0; Win64; x64) AppleWebKit/537.36 (KHTML, like Gecko) Chrome/102.0.0.0 Safari/537.36" etag="JKnUCa2kreJnyAx-Rz_N" version="19.0.3" type="github">
  <diagram id="A-bD-lrb0nkUmP1ru2k7" name="Page-1">
    <mxGraphModel dx="1609" dy="1875" grid="1" gridSize="10" guides="1" tooltips="1" connect="1" arrows="1" fold="1" page="1" pageScale="1" pageWidth="827" pageHeight="1169" math="0" shadow="0">
      <root>
        <mxCell id="0" />
        <mxCell id="1" parent="0" />
        <mxCell id="VRgXYeL4SBqcp2DiVpUN-23" style="edgeStyle=none;rounded=0;orthogonalLoop=1;jettySize=auto;html=1;exitX=0;exitY=1;exitDx=0;exitDy=0;entryX=1;entryY=0.5;entryDx=0;entryDy=0;fontSize=17;endArrow=none;endFill=0;" parent="1" source="VRgXYeL4SBqcp2DiVpUN-1" target="VRgXYeL4SBqcp2DiVpUN-21" edge="1">
          <mxGeometry relative="1" as="geometry" />
        </mxCell>
        <mxCell id="VRgXYeL4SBqcp2DiVpUN-24" style="edgeStyle=none;rounded=0;orthogonalLoop=1;jettySize=auto;html=1;exitX=0;exitY=0.5;exitDx=0;exitDy=0;entryX=1;entryY=1;entryDx=0;entryDy=0;fontSize=17;endArrow=none;endFill=0;" parent="1" source="VRgXYeL4SBqcp2DiVpUN-1" target="VRgXYeL4SBqcp2DiVpUN-18" edge="1">
          <mxGeometry relative="1" as="geometry" />
        </mxCell>
        <mxCell id="VRgXYeL4SBqcp2DiVpUN-25" style="edgeStyle=none;rounded=0;orthogonalLoop=1;jettySize=auto;html=1;exitX=0;exitY=0.75;exitDx=0;exitDy=0;entryX=1;entryY=0.5;entryDx=0;entryDy=0;fontSize=17;endArrow=none;endFill=0;" parent="1" source="VRgXYeL4SBqcp2DiVpUN-1" target="VRgXYeL4SBqcp2DiVpUN-17" edge="1">
          <mxGeometry relative="1" as="geometry" />
        </mxCell>
        <mxCell id="VRgXYeL4SBqcp2DiVpUN-26" style="edgeStyle=none;rounded=0;orthogonalLoop=1;jettySize=auto;html=1;exitX=0;exitY=0;exitDx=0;exitDy=0;entryX=1;entryY=1;entryDx=0;entryDy=0;fontSize=17;endArrow=none;endFill=0;" parent="1" source="VRgXYeL4SBqcp2DiVpUN-1" target="VRgXYeL4SBqcp2DiVpUN-19" edge="1">
          <mxGeometry relative="1" as="geometry" />
        </mxCell>
        <mxCell id="VRgXYeL4SBqcp2DiVpUN-1" value="&lt;font style=&quot;font-size: 19px;&quot;&gt;Доктор&lt;/font&gt;" style="rounded=0;whiteSpace=wrap;html=1;fontSize=19;" parent="1" vertex="1">
          <mxGeometry x="90" y="120" width="120" height="60" as="geometry" />
        </mxCell>
        <mxCell id="VRgXYeL4SBqcp2DiVpUN-11" value="M" style="edgeStyle=orthogonalEdgeStyle;rounded=0;orthogonalLoop=1;jettySize=auto;html=1;exitX=0.5;exitY=1;exitDx=0;exitDy=0;fontSize=17;endArrow=none;endFill=0;" parent="1" source="joG3ZNDjvbhKYUcJIZpY-4" target="VRgXYeL4SBqcp2DiVpUN-6" edge="1">
          <mxGeometry x="0.6" y="10" relative="1" as="geometry">
            <mxPoint as="offset" />
            <mxPoint x="600" y="180" as="sourcePoint" />
          </mxGeometry>
        </mxCell>
        <mxCell id="VRgXYeL4SBqcp2DiVpUN-13" value="1" style="edgeStyle=orthogonalEdgeStyle;rounded=0;orthogonalLoop=1;jettySize=auto;html=1;exitX=0;exitY=0.5;exitDx=0;exitDy=0;entryX=1;entryY=0.5;entryDx=0;entryDy=0;fontSize=17;endArrow=none;endFill=0;" parent="1" source="VRgXYeL4SBqcp2DiVpUN-3" target="VRgXYeL4SBqcp2DiVpUN-7" edge="1">
          <mxGeometry x="0.8" y="-20" relative="1" as="geometry">
            <mxPoint as="offset" />
          </mxGeometry>
        </mxCell>
        <mxCell id="VRgXYeL4SBqcp2DiVpUN-39" style="edgeStyle=none;rounded=0;orthogonalLoop=1;jettySize=auto;html=1;exitX=1;exitY=0.25;exitDx=0;exitDy=0;entryX=0;entryY=0.5;entryDx=0;entryDy=0;fontSize=17;endArrow=none;endFill=0;" parent="1" source="VRgXYeL4SBqcp2DiVpUN-3" target="VRgXYeL4SBqcp2DiVpUN-34" edge="1">
          <mxGeometry relative="1" as="geometry" />
        </mxCell>
        <mxCell id="VRgXYeL4SBqcp2DiVpUN-40" style="edgeStyle=none;rounded=0;orthogonalLoop=1;jettySize=auto;html=1;exitX=1;exitY=0.5;exitDx=0;exitDy=0;entryX=0;entryY=0.5;entryDx=0;entryDy=0;fontSize=17;endArrow=none;endFill=0;" parent="1" source="VRgXYeL4SBqcp2DiVpUN-3" target="VRgXYeL4SBqcp2DiVpUN-35" edge="1">
          <mxGeometry relative="1" as="geometry" />
        </mxCell>
        <mxCell id="VRgXYeL4SBqcp2DiVpUN-41" style="edgeStyle=none;rounded=0;orthogonalLoop=1;jettySize=auto;html=1;exitX=1;exitY=1;exitDx=0;exitDy=0;fontSize=17;endArrow=none;endFill=0;" parent="1" source="VRgXYeL4SBqcp2DiVpUN-3" target="VRgXYeL4SBqcp2DiVpUN-36" edge="1">
          <mxGeometry relative="1" as="geometry" />
        </mxCell>
        <mxCell id="VRgXYeL4SBqcp2DiVpUN-42" style="edgeStyle=none;rounded=0;orthogonalLoop=1;jettySize=auto;html=1;exitX=0.75;exitY=1;exitDx=0;exitDy=0;entryX=0.5;entryY=0;entryDx=0;entryDy=0;fontSize=17;endArrow=none;endFill=0;" parent="1" source="VRgXYeL4SBqcp2DiVpUN-3" target="VRgXYeL4SBqcp2DiVpUN-38" edge="1">
          <mxGeometry relative="1" as="geometry" />
        </mxCell>
        <mxCell id="VRgXYeL4SBqcp2DiVpUN-43" style="edgeStyle=none;rounded=0;orthogonalLoop=1;jettySize=auto;html=1;exitX=0.5;exitY=1;exitDx=0;exitDy=0;fontSize=17;endArrow=none;endFill=0;" parent="1" source="VRgXYeL4SBqcp2DiVpUN-3" target="VRgXYeL4SBqcp2DiVpUN-37" edge="1">
          <mxGeometry relative="1" as="geometry" />
        </mxCell>
        <mxCell id="VRgXYeL4SBqcp2DiVpUN-3" value="&lt;font style=&quot;font-size: 19px;&quot;&gt;Пациент&lt;/font&gt;" style="rounded=0;whiteSpace=wrap;html=1;fontSize=19;" parent="1" vertex="1">
          <mxGeometry x="540" y="340" width="120" height="60" as="geometry" />
        </mxCell>
        <mxCell id="VRgXYeL4SBqcp2DiVpUN-15" value="M" style="edgeStyle=orthogonalEdgeStyle;rounded=0;orthogonalLoop=1;jettySize=auto;html=1;exitX=0.5;exitY=0;exitDx=0;exitDy=0;fontSize=17;endArrow=none;endFill=0;entryX=0.5;entryY=1;entryDx=0;entryDy=0;" parent="1" source="VRgXYeL4SBqcp2DiVpUN-4" target="VRgXYeL4SBqcp2DiVpUN-8" edge="1">
          <mxGeometry x="0.6" y="-20" relative="1" as="geometry">
            <mxPoint x="140" y="300" as="targetPoint" />
            <mxPoint as="offset" />
          </mxGeometry>
        </mxCell>
        <mxCell id="VRgXYeL4SBqcp2DiVpUN-46" style="edgeStyle=none;rounded=0;orthogonalLoop=1;jettySize=auto;html=1;exitX=0.25;exitY=1;exitDx=0;exitDy=0;fontSize=17;endArrow=none;endFill=0;" parent="1" source="VRgXYeL4SBqcp2DiVpUN-4" target="VRgXYeL4SBqcp2DiVpUN-44" edge="1">
          <mxGeometry relative="1" as="geometry" />
        </mxCell>
        <mxCell id="VRgXYeL4SBqcp2DiVpUN-4" value="&lt;font style=&quot;font-size: 19px;&quot;&gt;Талон&lt;/font&gt;" style="rounded=0;whiteSpace=wrap;html=1;fontSize=19;" parent="1" vertex="1">
          <mxGeometry x="90" y="340" width="120" height="60" as="geometry" />
        </mxCell>
        <mxCell id="VRgXYeL4SBqcp2DiVpUN-10" value="M" style="edgeStyle=orthogonalEdgeStyle;rounded=0;orthogonalLoop=1;jettySize=auto;html=1;exitX=1;exitY=0.5;exitDx=0;exitDy=0;entryX=0;entryY=0.5;entryDx=0;entryDy=0;fontSize=17;endArrow=none;endFill=0;" parent="1" source="VRgXYeL4SBqcp2DiVpUN-5" target="joG3ZNDjvbhKYUcJIZpY-4" edge="1">
          <mxGeometry x="-0.8" y="20" relative="1" as="geometry">
            <Array as="points">
              <mxPoint x="550" y="150" />
            </Array>
            <mxPoint as="offset" />
            <mxPoint x="540" y="150" as="targetPoint" />
          </mxGeometry>
        </mxCell>
        <mxCell id="VRgXYeL4SBqcp2DiVpUN-5" value="ставит" style="rhombus;whiteSpace=wrap;html=1;fontSize=19;" parent="1" vertex="1">
          <mxGeometry x="300" y="120" width="140" height="60" as="geometry" />
        </mxCell>
        <mxCell id="VRgXYeL4SBqcp2DiVpUN-12" value="1" style="edgeStyle=orthogonalEdgeStyle;rounded=0;orthogonalLoop=1;jettySize=auto;html=1;exitX=0.5;exitY=1;exitDx=0;exitDy=0;entryX=0.5;entryY=0;entryDx=0;entryDy=0;fontSize=17;endArrow=none;endFill=0;" parent="1" source="VRgXYeL4SBqcp2DiVpUN-6" target="VRgXYeL4SBqcp2DiVpUN-3" edge="1">
          <mxGeometry x="-0.6" y="10" relative="1" as="geometry">
            <mxPoint as="offset" />
          </mxGeometry>
        </mxCell>
        <mxCell id="VRgXYeL4SBqcp2DiVpUN-6" value="имеет" style="rhombus;whiteSpace=wrap;html=1;fontSize=19;" parent="1" vertex="1">
          <mxGeometry x="530" y="230" width="140" height="60" as="geometry" />
        </mxCell>
        <mxCell id="VRgXYeL4SBqcp2DiVpUN-14" value="M" style="edgeStyle=orthogonalEdgeStyle;rounded=0;orthogonalLoop=1;jettySize=auto;html=1;exitX=0;exitY=0.5;exitDx=0;exitDy=0;entryX=1;entryY=0.5;entryDx=0;entryDy=0;fontSize=17;endArrow=none;endFill=0;" parent="1" source="VRgXYeL4SBqcp2DiVpUN-7" target="VRgXYeL4SBqcp2DiVpUN-4" edge="1">
          <mxGeometry x="-0.7778" y="-20" relative="1" as="geometry">
            <mxPoint as="offset" />
          </mxGeometry>
        </mxCell>
        <mxCell id="VRgXYeL4SBqcp2DiVpUN-7" value="получает" style="rhombus;whiteSpace=wrap;html=1;fontSize=19;" parent="1" vertex="1">
          <mxGeometry x="300" y="340" width="140" height="60" as="geometry" />
        </mxCell>
        <mxCell id="VRgXYeL4SBqcp2DiVpUN-16" value="1" style="edgeStyle=orthogonalEdgeStyle;rounded=0;orthogonalLoop=1;jettySize=auto;html=1;exitX=0.5;exitY=0;exitDx=0;exitDy=0;entryX=0.5;entryY=1;entryDx=0;entryDy=0;fontSize=17;endArrow=none;endFill=0;" parent="1" source="VRgXYeL4SBqcp2DiVpUN-8" target="VRgXYeL4SBqcp2DiVpUN-1" edge="1">
          <mxGeometry x="-0.6" y="-20" relative="1" as="geometry">
            <mxPoint as="offset" />
          </mxGeometry>
        </mxCell>
        <mxCell id="VRgXYeL4SBqcp2DiVpUN-8" value="&lt;font style=&quot;font-size: 19px;&quot;&gt;принимает&lt;br&gt;по&lt;/font&gt;" style="rhombus;whiteSpace=wrap;html=1;fontSize=19;" parent="1" vertex="1">
          <mxGeometry x="60" y="230" width="180" height="60" as="geometry" />
        </mxCell>
        <mxCell id="VRgXYeL4SBqcp2DiVpUN-9" value="1" style="endArrow=none;html=1;rounded=0;fontSize=17;exitX=1;exitY=0.5;exitDx=0;exitDy=0;entryX=0;entryY=0.5;entryDx=0;entryDy=0;" parent="1" source="VRgXYeL4SBqcp2DiVpUN-1" target="VRgXYeL4SBqcp2DiVpUN-5" edge="1">
          <mxGeometry x="0.7778" y="20" width="50" height="50" relative="1" as="geometry">
            <mxPoint x="280" y="280" as="sourcePoint" />
            <mxPoint x="330" y="230" as="targetPoint" />
            <Array as="points">
              <mxPoint x="270" y="150" />
            </Array>
            <mxPoint as="offset" />
          </mxGeometry>
        </mxCell>
        <mxCell id="VRgXYeL4SBqcp2DiVpUN-17" value="фамилия" style="ellipse;whiteSpace=wrap;html=1;fontSize=17;" parent="1" vertex="1">
          <mxGeometry x="-155" y="130" width="100" height="40" as="geometry" />
        </mxCell>
        <mxCell id="VRgXYeL4SBqcp2DiVpUN-18" value="имя" style="ellipse;whiteSpace=wrap;html=1;fontSize=18;" parent="1" vertex="1">
          <mxGeometry x="-155" y="80" width="90" height="40" as="geometry" />
        </mxCell>
        <mxCell id="VRgXYeL4SBqcp2DiVpUN-19" value="&lt;font style=&quot;font-size: 18px;&quot;&gt;отчество&lt;/font&gt;" style="ellipse;whiteSpace=wrap;html=1;fontSize=17;" parent="1" vertex="1">
          <mxGeometry x="-155" y="30" width="90" height="40" as="geometry" />
        </mxCell>
        <mxCell id="VRgXYeL4SBqcp2DiVpUN-21" value="специальность" style="ellipse;whiteSpace=wrap;html=1;fontSize=18;" parent="1" vertex="1">
          <mxGeometry x="-170" y="180" width="130" height="50" as="geometry" />
        </mxCell>
        <mxCell id="VRgXYeL4SBqcp2DiVpUN-34" value="фамилия" style="ellipse;whiteSpace=wrap;html=1;fontSize=17;" parent="1" vertex="1">
          <mxGeometry x="740" y="350" width="100" height="50" as="geometry" />
        </mxCell>
        <mxCell id="VRgXYeL4SBqcp2DiVpUN-35" value="имя" style="ellipse;whiteSpace=wrap;html=1;fontSize=17;" parent="1" vertex="1">
          <mxGeometry x="727" y="410" width="100" height="50" as="geometry" />
        </mxCell>
        <mxCell id="VRgXYeL4SBqcp2DiVpUN-36" value="отчество" style="ellipse;whiteSpace=wrap;html=1;fontSize=17;" parent="1" vertex="1">
          <mxGeometry x="692.5" y="480" width="100" height="50" as="geometry" />
        </mxCell>
        <mxCell id="VRgXYeL4SBqcp2DiVpUN-37" value="адрес" style="ellipse;whiteSpace=wrap;html=1;fontSize=17;" parent="1" vertex="1">
          <mxGeometry x="474" y="480" width="100" height="50" as="geometry" />
        </mxCell>
        <mxCell id="VRgXYeL4SBqcp2DiVpUN-38" value="дата рождения" style="ellipse;whiteSpace=wrap;html=1;fontSize=17;" parent="1" vertex="1">
          <mxGeometry x="580" y="490" width="100" height="50" as="geometry" />
        </mxCell>
        <mxCell id="VRgXYeL4SBqcp2DiVpUN-44" value="дата приема" style="ellipse;whiteSpace=wrap;html=1;fontSize=17;" parent="1" vertex="1">
          <mxGeometry x="30" y="460" width="100" height="50" as="geometry" />
        </mxCell>
        <mxCell id="joG3ZNDjvbhKYUcJIZpY-15" style="rounded=0;orthogonalLoop=1;jettySize=auto;html=1;exitX=0;exitY=0.5;exitDx=0;exitDy=0;entryX=0.983;entryY=0.64;entryDx=0;entryDy=0;entryPerimeter=0;fontSize=17;endArrow=none;endFill=0;" parent="1" source="joG3ZNDjvbhKYUcJIZpY-4" target="joG3ZNDjvbhKYUcJIZpY-14" edge="1">
          <mxGeometry relative="1" as="geometry" />
        </mxCell>
        <mxCell id="joG3ZNDjvbhKYUcJIZpY-20" style="edgeStyle=none;rounded=0;orthogonalLoop=1;jettySize=auto;html=1;exitX=0;exitY=1;exitDx=0;exitDy=0;entryX=1;entryY=0.5;entryDx=0;entryDy=0;fontSize=17;endArrow=none;endFill=0;" parent="1" source="joG3ZNDjvbhKYUcJIZpY-8" target="joG3ZNDjvbhKYUcJIZpY-4" edge="1">
          <mxGeometry relative="1" as="geometry" />
        </mxCell>
        <mxCell id="joG3ZNDjvbhKYUcJIZpY-8" value="наименование" style="ellipse;whiteSpace=wrap;html=1;fontSize=17;" parent="1" vertex="1">
          <mxGeometry x="751" y="125" width="130" height="50" as="geometry" />
        </mxCell>
        <mxCell id="joG3ZNDjvbhKYUcJIZpY-14" value="состояние" style="ellipse;whiteSpace=wrap;html=1;fontSize=17;" parent="1" vertex="1">
          <mxGeometry x="761" y="70" width="116" height="50" as="geometry" />
        </mxCell>
        <mxCell id="joG3ZNDjvbhKYUcJIZpY-22" style="edgeStyle=none;rounded=0;orthogonalLoop=1;jettySize=auto;html=1;exitX=0;exitY=0.5;exitDx=0;exitDy=0;entryX=1;entryY=0;entryDx=0;entryDy=0;fontSize=17;endArrow=none;endFill=0;" parent="1" source="joG3ZNDjvbhKYUcJIZpY-21" target="VRgXYeL4SBqcp2DiVpUN-3" edge="1">
          <mxGeometry relative="1" as="geometry" />
        </mxCell>
        <mxCell id="joG3ZNDjvbhKYUcJIZpY-21" value="&lt;u&gt;id медкижни&lt;/u&gt;" style="ellipse;whiteSpace=wrap;html=1;fontSize=18;" parent="1" vertex="1">
          <mxGeometry x="727" y="280" width="150" height="50" as="geometry" />
        </mxCell>
        <mxCell id="joG3ZNDjvbhKYUcJIZpY-24" style="edgeStyle=none;rounded=0;orthogonalLoop=1;jettySize=auto;html=1;exitX=0;exitY=1;exitDx=0;exitDy=0;entryX=0.175;entryY=1.017;entryDx=0;entryDy=0;fontSize=17;endArrow=none;endFill=0;entryPerimeter=0;" parent="1" source="joG3ZNDjvbhKYUcJIZpY-23" target="VRgXYeL4SBqcp2DiVpUN-1" edge="1">
          <mxGeometry relative="1" as="geometry" />
        </mxCell>
        <mxCell id="joG3ZNDjvbhKYUcJIZpY-23" value="&lt;u&gt;id доктора&lt;/u&gt;" style="ellipse;whiteSpace=wrap;html=1;fontSize=18;" parent="1" vertex="1">
          <mxGeometry x="-155" y="235" width="100" height="50" as="geometry" />
        </mxCell>
        <mxCell id="joG3ZNDjvbhKYUcJIZpY-26" style="edgeStyle=none;rounded=0;orthogonalLoop=1;jettySize=auto;html=1;exitX=0;exitY=0.5;exitDx=0;exitDy=0;entryX=1;entryY=0.75;entryDx=0;entryDy=0;fontSize=17;endArrow=none;endFill=0;" parent="1" source="joG3ZNDjvbhKYUcJIZpY-25" target="joG3ZNDjvbhKYUcJIZpY-4" edge="1">
          <mxGeometry relative="1" as="geometry" />
        </mxCell>
        <mxCell id="joG3ZNDjvbhKYUcJIZpY-25" value="&lt;u&gt;id диагноза&lt;/u&gt;" style="ellipse;whiteSpace=wrap;html=1;fontSize=17;" parent="1" vertex="1">
          <mxGeometry x="754" y="185" width="130" height="50" as="geometry" />
        </mxCell>
        <mxCell id="joG3ZNDjvbhKYUcJIZpY-34" style="edgeStyle=orthogonalEdgeStyle;rounded=0;orthogonalLoop=1;jettySize=auto;html=1;exitX=0.5;exitY=1;exitDx=0;exitDy=0;entryX=0.5;entryY=0;entryDx=0;entryDy=0;fontSize=17;endArrow=none;endFill=0;" parent="1" source="joG3ZNDjvbhKYUcJIZpY-27" target="joG3ZNDjvbhKYUcJIZpY-4" edge="1">
          <mxGeometry relative="1" as="geometry">
            <Array as="points">
              <mxPoint x="797" y="-30" />
              <mxPoint x="600" y="-30" />
            </Array>
          </mxGeometry>
        </mxCell>
        <mxCell id="joG3ZNDjvbhKYUcJIZpY-45" value="M" style="edgeLabel;html=1;align=center;verticalAlign=middle;resizable=0;points=[];fontSize=17;" parent="joG3ZNDjvbhKYUcJIZpY-34" vertex="1" connectable="0">
          <mxGeometry x="-0.8357" y="1" relative="1" as="geometry">
            <mxPoint x="19" y="-13" as="offset" />
          </mxGeometry>
        </mxCell>
        <mxCell id="joG3ZNDjvbhKYUcJIZpY-27" value="входит в" style="rhombus;whiteSpace=wrap;html=1;fontSize=19;" parent="1" vertex="1">
          <mxGeometry x="727" y="-190" width="140" height="60" as="geometry" />
        </mxCell>
        <mxCell id="joG3ZNDjvbhKYUcJIZpY-28" value="входит в" style="rhombus;whiteSpace=wrap;html=1;fontSize=19;" parent="1" vertex="1">
          <mxGeometry x="530" y="-190" width="140" height="60" as="geometry" />
        </mxCell>
        <mxCell id="joG3ZNDjvbhKYUcJIZpY-33" value="N" style="edgeStyle=none;rounded=0;orthogonalLoop=1;jettySize=auto;html=1;exitX=0.5;exitY=1;exitDx=0;exitDy=0;entryX=0.5;entryY=0;entryDx=0;entryDy=0;fontSize=17;endArrow=none;endFill=0;" parent="1" source="joG3ZNDjvbhKYUcJIZpY-30" target="joG3ZNDjvbhKYUcJIZpY-28" edge="1">
          <mxGeometry x="0.6667" y="20" relative="1" as="geometry">
            <mxPoint as="offset" />
          </mxGeometry>
        </mxCell>
        <mxCell id="joG3ZNDjvbhKYUcJIZpY-30" value="Анализ" style="rounded=0;whiteSpace=wrap;html=1;fontSize=19;" parent="1" vertex="1">
          <mxGeometry x="540" y="-330" width="120" height="60" as="geometry" />
        </mxCell>
        <mxCell id="joG3ZNDjvbhKYUcJIZpY-32" value="N" style="edgeStyle=none;rounded=0;orthogonalLoop=1;jettySize=auto;html=1;exitX=0.5;exitY=1;exitDx=0;exitDy=0;entryX=0.5;entryY=0;entryDx=0;entryDy=0;fontSize=17;endArrow=none;endFill=0;" parent="1" source="joG3ZNDjvbhKYUcJIZpY-31" target="joG3ZNDjvbhKYUcJIZpY-27" edge="1">
          <mxGeometry x="0.6667" y="20" relative="1" as="geometry">
            <mxPoint as="offset" />
          </mxGeometry>
        </mxCell>
        <mxCell id="joG3ZNDjvbhKYUcJIZpY-31" value="Лекарство" style="rounded=0;whiteSpace=wrap;html=1;fontSize=19;" parent="1" vertex="1">
          <mxGeometry x="737" y="-320" width="120" height="60" as="geometry" />
        </mxCell>
        <mxCell id="joG3ZNDjvbhKYUcJIZpY-39" style="edgeStyle=none;rounded=0;orthogonalLoop=1;jettySize=auto;html=1;exitX=0.5;exitY=1;exitDx=0;exitDy=0;entryX=0.4;entryY=0.017;entryDx=0;entryDy=0;entryPerimeter=0;fontSize=17;endArrow=none;endFill=0;" parent="1" source="joG3ZNDjvbhKYUcJIZpY-36" target="joG3ZNDjvbhKYUcJIZpY-30" edge="1">
          <mxGeometry relative="1" as="geometry" />
        </mxCell>
        <mxCell id="joG3ZNDjvbhKYUcJIZpY-36" value="наименование" style="ellipse;whiteSpace=wrap;html=1;fontSize=17;" parent="1" vertex="1">
          <mxGeometry x="500" y="-450" width="120" height="50" as="geometry" />
        </mxCell>
        <mxCell id="joG3ZNDjvbhKYUcJIZpY-38" style="rounded=0;orthogonalLoop=1;jettySize=auto;html=1;exitX=0.5;exitY=1;exitDx=0;exitDy=0;entryX=0.5;entryY=0;entryDx=0;entryDy=0;fontSize=17;endArrow=none;endFill=0;" parent="1" source="joG3ZNDjvbhKYUcJIZpY-37" target="joG3ZNDjvbhKYUcJIZpY-30" edge="1">
          <mxGeometry relative="1" as="geometry" />
        </mxCell>
        <mxCell id="joG3ZNDjvbhKYUcJIZpY-37" value="&lt;u&gt;id анализа&lt;/u&gt;" style="ellipse;whiteSpace=wrap;html=1;fontSize=17;" parent="1" vertex="1">
          <mxGeometry x="630" y="-450" width="120" height="50" as="geometry" />
        </mxCell>
        <mxCell id="joG3ZNDjvbhKYUcJIZpY-43" style="edgeStyle=none;rounded=0;orthogonalLoop=1;jettySize=auto;html=1;exitX=0.5;exitY=1;exitDx=0;exitDy=0;fontSize=17;endArrow=none;endFill=0;" parent="1" source="joG3ZNDjvbhKYUcJIZpY-40" target="joG3ZNDjvbhKYUcJIZpY-31" edge="1">
          <mxGeometry relative="1" as="geometry" />
        </mxCell>
        <mxCell id="joG3ZNDjvbhKYUcJIZpY-40" value="наименование" style="ellipse;whiteSpace=wrap;html=1;fontSize=17;" parent="1" vertex="1">
          <mxGeometry x="900" y="-380" width="120" height="50" as="geometry" />
        </mxCell>
        <mxCell id="joG3ZNDjvbhKYUcJIZpY-42" style="edgeStyle=none;rounded=0;orthogonalLoop=1;jettySize=auto;html=1;exitX=0.5;exitY=1;exitDx=0;exitDy=0;fontSize=17;endArrow=none;endFill=0;" parent="1" source="joG3ZNDjvbhKYUcJIZpY-41" target="joG3ZNDjvbhKYUcJIZpY-31" edge="1">
          <mxGeometry relative="1" as="geometry" />
        </mxCell>
        <mxCell id="joG3ZNDjvbhKYUcJIZpY-41" value="&lt;u&gt;id лекарства&lt;/u&gt;" style="ellipse;whiteSpace=wrap;html=1;fontSize=17;" parent="1" vertex="1">
          <mxGeometry x="792.5" y="-440" width="120" height="50" as="geometry" />
        </mxCell>
        <mxCell id="joG3ZNDjvbhKYUcJIZpY-46" value="Симптом" style="rounded=0;whiteSpace=wrap;html=1;fontSize=19;" parent="1" vertex="1">
          <mxGeometry x="354" y="-330" width="120" height="60" as="geometry" />
        </mxCell>
        <mxCell id="joG3ZNDjvbhKYUcJIZpY-49" style="edgeStyle=none;rounded=0;orthogonalLoop=1;jettySize=auto;html=1;exitX=0.5;exitY=1;exitDx=0;exitDy=0;fontSize=17;endArrow=none;endFill=0;" parent="1" source="joG3ZNDjvbhKYUcJIZpY-47" target="joG3ZNDjvbhKYUcJIZpY-46" edge="1">
          <mxGeometry relative="1" as="geometry" />
        </mxCell>
        <mxCell id="joG3ZNDjvbhKYUcJIZpY-47" value="наименование" style="ellipse;whiteSpace=wrap;html=1;fontSize=17;" parent="1" vertex="1">
          <mxGeometry x="210" y="-400" width="120" height="50" as="geometry" />
        </mxCell>
        <mxCell id="joG3ZNDjvbhKYUcJIZpY-50" style="edgeStyle=none;rounded=0;orthogonalLoop=1;jettySize=auto;html=1;exitX=0.5;exitY=1;exitDx=0;exitDy=0;entryX=0.625;entryY=0.017;entryDx=0;entryDy=0;entryPerimeter=0;fontSize=17;endArrow=none;endFill=0;" parent="1" source="joG3ZNDjvbhKYUcJIZpY-48" target="joG3ZNDjvbhKYUcJIZpY-46" edge="1">
          <mxGeometry relative="1" as="geometry" />
        </mxCell>
        <mxCell id="joG3ZNDjvbhKYUcJIZpY-48" value="&lt;u&gt;id симптома&lt;/u&gt;" style="ellipse;whiteSpace=wrap;html=1;fontSize=17;" parent="1" vertex="1">
          <mxGeometry x="330" y="-430" width="120" height="50" as="geometry" />
        </mxCell>
        <mxCell id="G6u7544H5hHgtNhLFgb0-5" style="edgeStyle=orthogonalEdgeStyle;rounded=0;orthogonalLoop=1;jettySize=auto;html=1;exitX=0.5;exitY=1;exitDx=0;exitDy=0;entryX=0.5;entryY=0;entryDx=0;entryDy=0;endArrow=none;endFill=0;" edge="1" parent="1" source="joG3ZNDjvbhKYUcJIZpY-51" target="joG3ZNDjvbhKYUcJIZpY-4">
          <mxGeometry relative="1" as="geometry">
            <Array as="points">
              <mxPoint x="414" y="-30" />
              <mxPoint x="600" y="-30" />
            </Array>
          </mxGeometry>
        </mxCell>
        <mxCell id="G6u7544H5hHgtNhLFgb0-7" value="M" style="edgeLabel;html=1;align=center;verticalAlign=middle;resizable=0;points=[];fontSize=15;" vertex="1" connectable="0" parent="G6u7544H5hHgtNhLFgb0-5">
          <mxGeometry x="-0.8991" y="2" relative="1" as="geometry">
            <mxPoint x="14" y="-12" as="offset" />
          </mxGeometry>
        </mxCell>
        <mxCell id="G6u7544H5hHgtNhLFgb0-6" value="&lt;font style=&quot;font-size: 15px;&quot;&gt;N&lt;/font&gt;" style="edgeStyle=none;rounded=0;orthogonalLoop=1;jettySize=auto;html=1;exitX=0.5;exitY=0;exitDx=0;exitDy=0;entryX=0.5;entryY=1;entryDx=0;entryDy=0;endArrow=none;endFill=0;" edge="1" parent="1" source="joG3ZNDjvbhKYUcJIZpY-51" target="joG3ZNDjvbhKYUcJIZpY-46">
          <mxGeometry x="-0.75" y="-16" relative="1" as="geometry">
            <mxPoint as="offset" />
          </mxGeometry>
        </mxCell>
        <mxCell id="joG3ZNDjvbhKYUcJIZpY-51" value="входит в" style="rhombus;whiteSpace=wrap;html=1;fontSize=19;" parent="1" vertex="1">
          <mxGeometry x="344" y="-190" width="140" height="60" as="geometry" />
        </mxCell>
        <mxCell id="joG3ZNDjvbhKYUcJIZpY-57" style="edgeStyle=none;rounded=0;orthogonalLoop=1;jettySize=auto;html=1;exitX=1;exitY=0;exitDx=0;exitDy=0;entryX=0.051;entryY=0.72;entryDx=0;entryDy=0;entryPerimeter=0;fontSize=17;endArrow=none;endFill=0;" parent="1" source="joG3ZNDjvbhKYUcJIZpY-4" target="joG3ZNDjvbhKYUcJIZpY-56" edge="1">
          <mxGeometry relative="1" as="geometry" />
        </mxCell>
        <mxCell id="joG3ZNDjvbhKYUcJIZpY-4" value="Диагноз" style="rounded=0;whiteSpace=wrap;html=1;fontSize=19;" parent="1" vertex="1">
          <mxGeometry x="540" y="120" width="120" height="60" as="geometry" />
        </mxCell>
        <mxCell id="joG3ZNDjvbhKYUcJIZpY-52" value="" style="edgeStyle=orthogonalEdgeStyle;rounded=0;orthogonalLoop=1;jettySize=auto;html=1;exitX=0.5;exitY=1;exitDx=0;exitDy=0;fontSize=17;endArrow=none;endFill=0;" parent="1" source="joG3ZNDjvbhKYUcJIZpY-28" target="joG3ZNDjvbhKYUcJIZpY-4" edge="1">
          <mxGeometry relative="1" as="geometry">
            <mxPoint x="600" y="-110" as="targetPoint" />
            <mxPoint x="490" y="-290" as="sourcePoint" />
          </mxGeometry>
        </mxCell>
        <mxCell id="joG3ZNDjvbhKYUcJIZpY-53" value="M" style="edgeLabel;html=1;align=center;verticalAlign=middle;resizable=0;points=[];fontSize=17;" parent="joG3ZNDjvbhKYUcJIZpY-52" vertex="1" connectable="0">
          <mxGeometry x="-0.8345" relative="1" as="geometry">
            <mxPoint x="20" y="-14" as="offset" />
          </mxGeometry>
        </mxCell>
        <mxCell id="joG3ZNDjvbhKYUcJIZpY-56" value="дата диагностики" style="ellipse;whiteSpace=wrap;html=1;fontSize=17;" parent="1" vertex="1">
          <mxGeometry x="751" y="10" width="136" height="50" as="geometry" />
        </mxCell>
        <mxCell id="G6u7544H5hHgtNhLFgb0-3" style="rounded=0;orthogonalLoop=1;jettySize=auto;html=1;exitX=0.5;exitY=0;exitDx=0;exitDy=0;entryX=0.75;entryY=1;entryDx=0;entryDy=0;endArrow=none;endFill=0;" edge="1" parent="1" source="G6u7544H5hHgtNhLFgb0-1" target="VRgXYeL4SBqcp2DiVpUN-4">
          <mxGeometry relative="1" as="geometry" />
        </mxCell>
        <mxCell id="G6u7544H5hHgtNhLFgb0-1" value="номер кабинета" style="ellipse;whiteSpace=wrap;html=1;fontSize=17;" vertex="1" parent="1">
          <mxGeometry x="180" y="460" width="100" height="50" as="geometry" />
        </mxCell>
        <mxCell id="G6u7544H5hHgtNhLFgb0-8" value="Расписание" style="rounded=0;whiteSpace=wrap;html=1;fontSize=19;" vertex="1" parent="1">
          <mxGeometry x="90" y="-190" width="120" height="60" as="geometry" />
        </mxCell>
        <mxCell id="G6u7544H5hHgtNhLFgb0-16" style="edgeStyle=none;rounded=0;orthogonalLoop=1;jettySize=auto;html=1;exitX=0.5;exitY=1;exitDx=0;exitDy=0;entryX=0.433;entryY=0;entryDx=0;entryDy=0;entryPerimeter=0;fontSize=15;endArrow=none;endFill=0;" edge="1" parent="1" source="G6u7544H5hHgtNhLFgb0-9" target="G6u7544H5hHgtNhLFgb0-8">
          <mxGeometry relative="1" as="geometry" />
        </mxCell>
        <mxCell id="G6u7544H5hHgtNhLFgb0-9" value="&lt;u&gt;id расписание&lt;/u&gt;" style="ellipse;whiteSpace=wrap;html=1;fontSize=18;" vertex="1" parent="1">
          <mxGeometry x="60" y="-270" width="130" height="50" as="geometry" />
        </mxCell>
        <mxCell id="G6u7544H5hHgtNhLFgb0-13" style="rounded=0;orthogonalLoop=1;jettySize=auto;html=1;exitX=1;exitY=1;exitDx=0;exitDy=0;entryX=0;entryY=0;entryDx=0;entryDy=0;fontSize=15;endArrow=none;endFill=0;" edge="1" parent="1" source="G6u7544H5hHgtNhLFgb0-10" target="G6u7544H5hHgtNhLFgb0-8">
          <mxGeometry relative="1" as="geometry" />
        </mxCell>
        <mxCell id="G6u7544H5hHgtNhLFgb0-10" value="день недели" style="ellipse;whiteSpace=wrap;html=1;fontSize=18;" vertex="1" parent="1">
          <mxGeometry x="-80" y="-260" width="130" height="50" as="geometry" />
        </mxCell>
        <mxCell id="G6u7544H5hHgtNhLFgb0-14" style="edgeStyle=none;rounded=0;orthogonalLoop=1;jettySize=auto;html=1;exitX=1;exitY=0.5;exitDx=0;exitDy=0;entryX=0;entryY=0.367;entryDx=0;entryDy=0;entryPerimeter=0;fontSize=15;endArrow=none;endFill=0;" edge="1" parent="1" source="G6u7544H5hHgtNhLFgb0-11" target="G6u7544H5hHgtNhLFgb0-8">
          <mxGeometry relative="1" as="geometry" />
        </mxCell>
        <mxCell id="G6u7544H5hHgtNhLFgb0-11" value="часы с" style="ellipse;whiteSpace=wrap;html=1;fontSize=18;" vertex="1" parent="1">
          <mxGeometry x="-80" y="-185" width="130" height="50" as="geometry" />
        </mxCell>
        <mxCell id="G6u7544H5hHgtNhLFgb0-15" style="edgeStyle=none;rounded=0;orthogonalLoop=1;jettySize=auto;html=1;exitX=1;exitY=0.5;exitDx=0;exitDy=0;entryX=0;entryY=1;entryDx=0;entryDy=0;fontSize=15;endArrow=none;endFill=0;" edge="1" parent="1" source="G6u7544H5hHgtNhLFgb0-12" target="G6u7544H5hHgtNhLFgb0-8">
          <mxGeometry relative="1" as="geometry" />
        </mxCell>
        <mxCell id="G6u7544H5hHgtNhLFgb0-12" value="часы до" style="ellipse;whiteSpace=wrap;html=1;fontSize=18;" vertex="1" parent="1">
          <mxGeometry x="-80" y="-120" width="130" height="50" as="geometry" />
        </mxCell>
        <mxCell id="G6u7544H5hHgtNhLFgb0-20" value="M" style="edgeStyle=none;rounded=0;orthogonalLoop=1;jettySize=auto;html=1;exitX=0.5;exitY=0;exitDx=0;exitDy=0;entryX=0.5;entryY=1;entryDx=0;entryDy=0;fontSize=15;endArrow=none;endFill=0;" edge="1" parent="1" source="G6u7544H5hHgtNhLFgb0-17" target="G6u7544H5hHgtNhLFgb0-8">
          <mxGeometry x="-0.7778" y="-10" relative="1" as="geometry">
            <mxPoint as="offset" />
          </mxGeometry>
        </mxCell>
        <mxCell id="G6u7544H5hHgtNhLFgb0-21" style="edgeStyle=none;rounded=0;orthogonalLoop=1;jettySize=auto;html=1;exitX=0.5;exitY=1;exitDx=0;exitDy=0;entryX=0.5;entryY=0;entryDx=0;entryDy=0;fontSize=15;endArrow=none;endFill=0;" edge="1" parent="1" source="G6u7544H5hHgtNhLFgb0-17" target="VRgXYeL4SBqcp2DiVpUN-1">
          <mxGeometry relative="1" as="geometry" />
        </mxCell>
        <mxCell id="G6u7544H5hHgtNhLFgb0-22" value="1" style="edgeLabel;html=1;align=center;verticalAlign=middle;resizable=0;points=[];fontSize=15;" vertex="1" connectable="0" parent="G6u7544H5hHgtNhLFgb0-21">
          <mxGeometry x="-0.34" y="-2" relative="1" as="geometry">
            <mxPoint x="12" y="-23" as="offset" />
          </mxGeometry>
        </mxCell>
        <mxCell id="G6u7544H5hHgtNhLFgb0-17" value="имеет" style="rhombus;whiteSpace=wrap;html=1;fontSize=19;" vertex="1" parent="1">
          <mxGeometry x="80" y="-40" width="140" height="60" as="geometry" />
        </mxCell>
      </root>
    </mxGraphModel>
  </diagram>
</mxfile>
